# xmcd
#
# Track frame offsets:
#	150
#	22444
#	46967
#	71956
#	91569
#	117603
#	142783
#	171954
#	210744
#	248081
#	297490
#	316371
#
# Disc length: 4510 seconds
# Revision: 0
# Processed by: cddbd v1.5.2PL0 Copyright (c) Steve Scherf et al.
# Submitted via: dBpowerAMP V12.0
#
DISCID=b7119c0c
DTITLE=Toni Braxton - Essential Mixes
DYEAR=1900
DGENRE=
TTITLE0=Breathe Again (Extended Mix)
TTITLE1=Another Sad Love Song (Extended Mix)
TTITLE2=You Mean The World To Me (Extended Mix)
TTITLE3=I Belong To You (Rollerskate radio mix)
TTITLE4=How Many Ways (R. Kelly Extended Mix)
TTITLE5=He Wasn't Man Enough (Extended Mix)
TTITLE6=Hit The Freeway Extended Mix)
TTITLE7=Un-Break My Heart (Frankie Knuckles Frankidrama Mix)
TTITLE8=You're Makin' Me High (David Morales Classic Mix)
TTITLE9=I Don't Want To (Frankie Knuckles Franktified Club Mix)
TTITLE10=Spanish Guitar (HQ2 Radio Edit)
TTITLE11=You're Makin' Me High (Dancehall Mix)
EXTD=
EXTT0=
EXTT1=
EXTT2=
EXTT3=
EXTT4=
EXTT5=
EXTT6=
EXTT7=
EXTT8=
EXTT9=
EXTT10=
EXTT11=
PLAYORDER=
